<mxfile host="Electron" modified="2023-06-23T12:19:05.665Z" agent="Mozilla/5.0 (Windows NT 10.0; Win64; x64) AppleWebKit/537.36 (KHTML, like Gecko) draw.io/21.2.8 Chrome/112.0.5615.165 Electron/24.2.0 Safari/537.36" etag="-yDXyLBw96J-HJHgC9S1" version="21.2.8" type="device">
  <diagram name="Page-1" id="Ovxf-N5QuJN4pjYAlrJD">
    <mxGraphModel dx="780" dy="504" grid="1" gridSize="10" guides="1" tooltips="1" connect="1" arrows="1" fold="1" page="1" pageScale="1" pageWidth="850" pageHeight="1100" math="0" shadow="0">
      <root>
        <mxCell id="0" />
        <mxCell id="1" parent="0" />
        <mxCell id="yzkgML8GznNGnoveQ0pr-1" value="Admin" style="shape=umlActor;verticalLabelPosition=bottom;verticalAlign=top;html=1;outlineConnect=0;" vertex="1" parent="1">
          <mxGeometry x="160" y="600" width="30" height="60" as="geometry" />
        </mxCell>
        <mxCell id="yzkgML8GznNGnoveQ0pr-2" value="" style="swimlane;startSize=0;" vertex="1" parent="1">
          <mxGeometry x="230" y="360" width="270" height="530" as="geometry">
            <mxRectangle x="230" y="360" width="50" height="40" as="alternateBounds" />
          </mxGeometry>
        </mxCell>
        <mxCell id="yzkgML8GznNGnoveQ0pr-11" value="&lt;b&gt;DAILY EVENTS TRACKER APPLICATION&lt;/b&gt;" style="text;html=1;align=center;verticalAlign=middle;resizable=0;points=[];autosize=1;strokeColor=none;fillColor=none;" vertex="1" parent="yzkgML8GznNGnoveQ0pr-2">
          <mxGeometry x="10" y="8" width="250" height="30" as="geometry" />
        </mxCell>
        <mxCell id="yzkgML8GznNGnoveQ0pr-12" value="Add Task" style="ellipse;whiteSpace=wrap;html=1;" vertex="1" parent="yzkgML8GznNGnoveQ0pr-2">
          <mxGeometry x="75" y="60" width="120" height="50" as="geometry" />
        </mxCell>
        <mxCell id="yzkgML8GznNGnoveQ0pr-13" value="View Task" style="ellipse;whiteSpace=wrap;html=1;" vertex="1" parent="yzkgML8GznNGnoveQ0pr-2">
          <mxGeometry x="75" y="130" width="120" height="50" as="geometry" />
        </mxCell>
        <mxCell id="yzkgML8GznNGnoveQ0pr-15" value="Delete Task" style="ellipse;whiteSpace=wrap;html=1;" vertex="1" parent="yzkgML8GznNGnoveQ0pr-2">
          <mxGeometry x="75" y="270" width="120" height="50" as="geometry" />
        </mxCell>
        <mxCell id="yzkgML8GznNGnoveQ0pr-14" value="Update Task" style="ellipse;whiteSpace=wrap;html=1;" vertex="1" parent="yzkgML8GznNGnoveQ0pr-2">
          <mxGeometry x="75" y="200" width="120" height="50" as="geometry" />
        </mxCell>
        <mxCell id="yzkgML8GznNGnoveQ0pr-17" value="Search Task" style="ellipse;whiteSpace=wrap;html=1;" vertex="1" parent="yzkgML8GznNGnoveQ0pr-2">
          <mxGeometry x="75" y="340" width="120" height="50" as="geometry" />
        </mxCell>
        <mxCell id="yzkgML8GznNGnoveQ0pr-22" value="" style="endArrow=classic;html=1;rounded=0;" edge="1" parent="yzkgML8GznNGnoveQ0pr-2">
          <mxGeometry width="50" height="50" relative="1" as="geometry">
            <mxPoint x="-40" y="260" as="sourcePoint" />
            <mxPoint x="90" y="100" as="targetPoint" />
          </mxGeometry>
        </mxCell>
        <mxCell id="yzkgML8GznNGnoveQ0pr-24" value="" style="endArrow=classic;html=1;rounded=0;exitX=1;exitY=0.3333333333333333;exitDx=0;exitDy=0;exitPerimeter=0;" edge="1" parent="yzkgML8GznNGnoveQ0pr-2" source="yzkgML8GznNGnoveQ0pr-1">
          <mxGeometry width="50" height="50" relative="1" as="geometry">
            <mxPoint x="-30" y="260" as="sourcePoint" />
            <mxPoint x="80" y="240" as="targetPoint" />
          </mxGeometry>
        </mxCell>
        <mxCell id="yzkgML8GznNGnoveQ0pr-38" value="Update Status" style="ellipse;whiteSpace=wrap;html=1;" vertex="1" parent="yzkgML8GznNGnoveQ0pr-2">
          <mxGeometry x="75" y="400" width="120" height="50" as="geometry" />
        </mxCell>
        <mxCell id="yzkgML8GznNGnoveQ0pr-18" value="Add Comment" style="ellipse;whiteSpace=wrap;html=1;" vertex="1" parent="yzkgML8GznNGnoveQ0pr-2">
          <mxGeometry x="75" y="460" width="120" height="50" as="geometry" />
        </mxCell>
        <mxCell id="yzkgML8GznNGnoveQ0pr-7" value="&lt;u&gt;User&lt;br&gt;&lt;br&gt;&lt;/u&gt;" style="shape=umlActor;verticalLabelPosition=bottom;verticalAlign=top;html=1;outlineConnect=0;" vertex="1" parent="1">
          <mxGeometry x="580" y="600" width="30" height="60" as="geometry" />
        </mxCell>
        <mxCell id="yzkgML8GznNGnoveQ0pr-37" value="" style="endArrow=classic;html=1;rounded=0;exitX=0.942;exitY=0.287;exitDx=0;exitDy=0;exitPerimeter=0;entryX=0;entryY=0.3333333333333333;entryDx=0;entryDy=0;entryPerimeter=0;" edge="1" parent="1" source="yzkgML8GznNGnoveQ0pr-17" target="yzkgML8GznNGnoveQ0pr-7">
          <mxGeometry width="50" height="50" relative="1" as="geometry">
            <mxPoint x="420" y="710" as="sourcePoint" />
            <mxPoint x="570" y="660" as="targetPoint" />
          </mxGeometry>
        </mxCell>
        <mxCell id="yzkgML8GznNGnoveQ0pr-31" value="" style="endArrow=classic;html=1;rounded=0;exitX=1;exitY=0;exitDx=0;exitDy=0;" edge="1" parent="1" source="yzkgML8GznNGnoveQ0pr-38">
          <mxGeometry width="50" height="50" relative="1" as="geometry">
            <mxPoint x="430" y="780" as="sourcePoint" />
            <mxPoint x="580" y="640" as="targetPoint" />
          </mxGeometry>
        </mxCell>
        <mxCell id="yzkgML8GznNGnoveQ0pr-25" value="" style="endArrow=classic;html=1;rounded=0;exitX=1;exitY=0.3333333333333333;exitDx=0;exitDy=0;exitPerimeter=0;entryX=0;entryY=0.5;entryDx=0;entryDy=0;" edge="1" parent="1" source="yzkgML8GznNGnoveQ0pr-1" target="yzkgML8GznNGnoveQ0pr-15">
          <mxGeometry width="50" height="50" relative="1" as="geometry">
            <mxPoint x="200" y="630" as="sourcePoint" />
            <mxPoint x="310" y="670" as="targetPoint" />
          </mxGeometry>
        </mxCell>
        <mxCell id="yzkgML8GznNGnoveQ0pr-23" value="" style="endArrow=classic;html=1;rounded=0;exitX=1;exitY=0.3333333333333333;exitDx=0;exitDy=0;exitPerimeter=0;entryX=0.086;entryY=0.873;entryDx=0;entryDy=0;entryPerimeter=0;" edge="1" parent="1" source="yzkgML8GznNGnoveQ0pr-1" target="yzkgML8GznNGnoveQ0pr-13">
          <mxGeometry width="50" height="50" relative="1" as="geometry">
            <mxPoint x="200" y="620" as="sourcePoint" />
            <mxPoint x="330" y="530" as="targetPoint" />
          </mxGeometry>
        </mxCell>
        <mxCell id="yzkgML8GznNGnoveQ0pr-39" value="" style="endArrow=classic;html=1;rounded=0;exitX=1;exitY=0;exitDx=0;exitDy=0;" edge="1" parent="1" source="yzkgML8GznNGnoveQ0pr-18">
          <mxGeometry width="50" height="50" relative="1" as="geometry">
            <mxPoint x="417" y="777" as="sourcePoint" />
            <mxPoint x="580" y="660" as="targetPoint" />
          </mxGeometry>
        </mxCell>
      </root>
    </mxGraphModel>
  </diagram>
</mxfile>
